<?xml version="1.0" encoding="UTF-8"?>
<svg id="Calque_2" data-name="Calque 2" xmlns="http://www.w3.org/2000/svg" viewBox="0 0 50.74 50.9">
  <defs>
    <style>
      .cls-1 {
        fill: #d6e2b5;
      }

      .cls-2 {
        fill: #465433;
      }
    </style>
  </defs>
  <g id="Calque_1-2" data-name="Calque 1">
    <g>
      <path class="cls-1" d="M21.65.03c5.42-.23,11.53.89,16.6,2.78,7.09,2.64,10.53,7.93,11.84,15.21,1.34,7.44.71,16.73-2.81,23.52-2.19,4.22-5.7,6.21-10.14,7.5-9.98,2.91-24.93,2.94-33.37-3.9C.23,42.27-.15,39.22.04,34.84.46,24.88,4.06,12.92,10.6,5.28,13.67,1.71,16.91.23,21.65.03Z"/>
      <path class="cls-2" d="M11.27,18.96c6.14-.5,9.57,6.03,6.65,11.17-2.54,4.49-8.91,5.02-11.96.77-3.32-4.64-.48-11.47,5.3-11.94Z"/>
      <path class="cls-2" d="M39.61,27.84c5.88-.56,7.22,8.73,2.66,11.38-3.12,1.81-6.37-.56-7.04-3.75-.62-2.98.94-7.3,4.37-7.62Z"/>
      <path class="cls-2" d="M20.3,40.8c3.11-.22,6.8,2.25,5.64,5.7-1.39,4.16-8.61,2.99-9.79-.89-.84-2.76,1.65-4.64,4.14-4.81Z"/>
    </g>
  </g>
</svg>
